<?xml version="1.0" standalone="no"?>
<!DOCTYPE svg PUBLIC "-//W3C//DTD SVG 20010904//EN"
 "http://www.w3.org/TR/2001/REC-SVG-20010904/DTD/svg10.dtd">
<svg version="1.0" xmlns="http://www.w3.org/2000/svg"
 width="300.000000pt" height="300.000000pt" viewBox="0 0 300.000000 300.000000"
 preserveAspectRatio="xMidYMid meet">
<metadata>
Created by potrace 1.11, written by Peter Selinger 2001-2013
</metadata>
<g transform="translate(0.000000,300.000000) scale(0.100000,-0.100000)"
fill="#000000" stroke="none">
<path d="M0 2790 c0 -138 4 -210 10 -210 6 0 13 7 17 16 3 9 19 30 34 47 16
17 29 37 29 44 0 7 7 13 15 13 9 0 20 11 25 25 5 14 16 25 25 25 8 0 15 7 15
15 0 8 7 15 15 15 8 0 15 7 15 15 0 8 6 15 13 15 7 0 37 25 67 55 30 30 58 55
63 55 4 0 18 11 31 25 13 14 28 25 33 25 6 0 16 7 23 15 11 13 -13 15 -209 15
l-221 0 0 -210z"/>
<path d="M2530 2970 c19 -16 40 -30 46 -30 6 0 21 -11 34 -25 13 -14 29 -25
35 -25 7 0 17 -11 23 -25 7 -14 19 -28 28 -32 23 -9 244 -242 244 -259 0 -5
14 -25 30 -44 l29 -35 1 253 0 252 -252 0 -253 -1 35 -29z"/>
<path d="M1380 2609 c-385 -44 -724 -305 -869 -669 -55 -138 -66 -207 -65
-400 0 -161 3 -182 28 -265 15 -49 34 -103 42 -120 15 -29 14 -31 -18 -55
-134 -100 -196 -241 -170 -392 7 -39 24 -93 39 -120 35 -65 120 -143 190 -176
52 -24 70 -27 163 -27 95 0 111 3 162 29 58 28 128 88 164 139 l19 27 63 -24
c122 -48 204 -61 382 -60 174 0 262 15 377 65 l48 20 14 -23 c30 -47 109 -116
167 -144 54 -26 68 -29 164 -29 93 0 112 3 162 27 158 74 258 255 230 417 -17
96 -54 162 -131 233 -67 62 -68 65 -55 90 28 53 64 202 73 302 42 439 -194
857 -593 1051 -122 59 -224 89 -361 105 -101 11 -119 11 -225 -1z m340 -189
c323 -82 564 -323 651 -650 18 -68 23 -111 23 -220 0 -135 -10 -196 -51 -310
-25 -69 -36 -77 -107 -82 -177 -11 -327 -166 -343 -355 l-6 -62 -46 -19 c-209
-89 -460 -89 -678 -1 -50 20 -53 23 -53 58 -1 187 -162 364 -345 379 -79 6
-85 13 -120 127 -80 263 -42 529 110 760 140 214 358 353 620 396 81 13 252 3
345 -21z m-885 -1405 c83 -40 155 -151 155 -239 0 -58 -29 -132 -70 -178 -55
-63 -112 -88 -200 -88 -83 0 -123 15 -180 66 -154 140 -99 391 100 455 42 14
152 5 195 -16z m1532 12 c64 -24 119 -73 148 -131 35 -72 41 -129 21 -198 -33
-115 -132 -188 -255 -188 -81 0 -126 17 -182 67 -149 135 -100 381 88 449 46
16 137 17 180 1z"/>
<path d="M1009 2162 c-120 -95 -204 -216 -254 -367 -28 -82 -49 -242 -35 -260
5 -6 107 -9 279 -7 l271 3 6 27 c12 48 43 99 75 125 l32 25 -143 248 c-78 137
-146 253 -149 257 -4 4 -41 -19 -82 -51z"/>
<path d="M1862 2153 c-104 -179 -142 -245 -142 -248 0 -1 -25 -45 -55 -96 -30
-51 -55 -97 -55 -102 0 -6 18 -29 39 -52 24 -26 42 -58 47 -79 3 -20 10 -38
14 -41 10 -6 581 -8 587 -1 3 3 -1 55 -10 115 -26 180 -101 335 -220 454 -56
56 -137 117 -156 117 -5 0 -28 -30 -49 -67z"/>
<path d="M1447 1645 c-20 -7 -44 -19 -53 -26 -53 -44 -58 -148 -9 -199 120
-125 314 30 219 175 -32 49 -100 70 -157 50z"/>
<path d="M1254 1098 c-71 -122 -130 -228 -132 -235 -4 -16 82 -56 181 -83 109
-31 225 -36 332 -15 96 19 235 70 235 87 0 6 -60 114 -132 239 -127 220 -134
229 -158 222 -33 -10 -149 -10 -176 0 -19 7 -33 -15 -150 -215z"/>
<path d="M2979 448 c-7 -13 -18 -27 -25 -31 -8 -4 -14 -14 -14 -20 0 -7 -18
-31 -40 -52 -22 -21 -40 -43 -40 -47 0 -12 -205 -218 -217 -218 -5 0 -20 -11
-33 -25 -13 -14 -29 -25 -37 -25 -7 0 -13 -7 -13 -15 0 -13 31 -15 220 -15
l220 0 0 235 c0 129 -2 235 -5 235 -2 0 -10 -10 -16 -22z"/>
<path d="M0 195 l0 -195 206 0 c134 0 203 3 199 10 -3 5 -13 10 -21 10 -8 0
-17 7 -20 15 -4 8 -11 15 -18 15 -6 0 -36 25 -66 55 -30 30 -59 55 -65 55 -13
0 -105 92 -105 105 0 6 -21 32 -45 58 -25 26 -45 52 -45 57 0 6 -4 10 -10 10
-6 0 -10 -72 -10 -195z"/>
</g>
</svg>
